<svg width="218" height="120" viewBox="0 0 218 120" fill="none" xmlns="http://www.w3.org/2000/svg">
<rect width="218" height="120" rx="16" fill="url(#paint0_linear_1214_395)"/>
<rect x="0.5" y="0.5" width="217" height="119" rx="15.5" stroke="white" stroke-opacity="0.2"/>
<path d="M103.745 47.0867L101.179 18.2856H129.393L126.823 47.0821L115.269 50.2856L103.745 47.0867Z" fill="#FEFEFE"/>
<path d="M115.286 47.8371L124.623 45.2486L126.819 20.6406H115.286V47.8371Z" fill="#C7C7C7"/>
<path d="M115.286 31.0755H119.96L120.282 27.4583H115.286V23.9258H124.143L124.058 24.8732L123.191 34.608H115.286V31.0755Z" fill="white"/>
<path d="M115.307 40.249L115.291 40.2535L111.358 39.1907L111.106 36.3735H107.56L108.055 41.9198L115.29 43.9289L115.307 43.9244V40.249Z" fill="#EBEBEB"/>
<path d="M119.659 34.4583L119.234 39.1885L115.295 40.2514V43.9268L122.536 41.9199L122.59 41.3234L123.203 34.4583H119.659Z" fill="white"/>
<path d="M115.298 23.9258V27.4583H106.766L106.695 26.6641L106.534 24.8732L106.449 23.9258H115.298ZM115.286 31.0755V34.608H111.401L111.33 33.8138L111.17 32.0229L111.086 31.0755H115.286Z" fill="#EBEBEB"/>
<path d="M91.1738 58.5154L88.6058 29.7144H116.823L114.251 58.5108L102.697 61.7143L91.1738 58.5154Z" fill="#C7C7C7"/>
<path d="M102.714 59.2663L112.052 56.6778L114.248 32.0698H102.714V59.2663Z" fill="white"/>
<path d="M102.714 42.751H98.0401L97.7178 39.1339H102.714V35.6013H93.8573L93.9418 36.5499L94.8093 46.2836H102.714V42.751ZM102.714 51.9247L102.698 51.9293L98.7647 50.8676L98.5133 48.0504H94.967L95.4618 53.5956L102.698 55.6047L102.714 55.6001V51.9247Z" fill="#EBEBEB"/>
<path d="M102.702 42.751V46.2836H107.052L106.642 50.8653L102.702 51.9281V55.6035L109.944 53.5956L109.997 52.999L110.826 43.6996L110.913 42.751H102.702ZM102.702 35.6013V39.1339H111.234L111.305 38.3407L111.466 36.5499L111.551 35.6013H102.702Z" fill="#EBEBEB"/>
<path d="M89.408 99V87.08H90.688V92.44H97.088V87.08H98.368V99H97.088V93.64H90.688V99H89.408ZM103.253 99V88.28H99.9573V87.08H107.797V88.28H104.533V99H103.253ZM109.377 99V87.08H110.497L114.977 93.576H114.353L118.817 87.08H119.937V99H118.657V88.808L119.073 88.968L114.689 95.32H114.625L110.257 88.968L110.657 88.808V99H109.377ZM122.752 99V87.08H124.032V97.8H129.312V99H122.752Z" fill="#C5C5C5"/>
<defs>
<linearGradient id="paint0_linear_1214_395" x1="109" y1="120" x2="109" y2="0" gradientUnits="userSpaceOnUse">
<stop stop-opacity="0"/>
<stop offset="1" stop-color="white" stop-opacity="0.05"/>
</linearGradient>
</defs>
</svg>
